<?xml version="1.0" encoding="UTF-8"?>
<svg xmlns="http://www.w3.org/2000/svg" version="1.1" width="200" height="200" viewBox="0 0 200 200"><rect x="0" y="0" width="200" height="200" fill="#ffffff"/><g transform="scale(6.897)"><g transform="translate(0,0)"><path fill-rule="evenodd" d="M8 0L8 1L9 1L9 2L8 2L8 5L9 5L9 4L11 4L11 5L10 5L10 10L9 10L9 8L8 8L8 11L9 11L9 12L8 12L8 14L9 14L9 15L7 15L7 14L6 14L6 15L4 15L4 13L2 13L2 12L3 12L3 11L5 11L5 10L6 10L6 11L7 11L7 10L6 10L6 9L7 9L7 8L6 8L6 9L5 9L5 10L4 10L4 8L0 8L0 9L1 9L1 11L2 11L2 12L0 12L0 13L2 13L2 14L3 14L3 15L1 15L1 14L0 14L0 15L1 15L1 16L0 16L0 17L1 17L1 16L3 16L3 17L2 17L2 19L3 19L3 20L1 20L1 21L4 21L4 19L5 19L5 20L6 20L6 21L7 21L7 20L6 20L6 19L7 19L7 18L10 18L10 17L8 17L8 16L10 16L10 15L11 15L11 16L12 16L12 17L13 17L13 16L12 16L12 14L13 14L13 15L14 15L14 18L13 18L13 21L16 21L16 20L15 20L15 19L16 19L16 18L17 18L17 16L16 16L16 15L18 15L18 14L19 14L19 16L18 16L18 18L19 18L19 16L20 16L20 19L19 19L19 20L20 20L20 22L19 22L19 21L18 21L18 19L17 19L17 22L18 22L18 24L17 24L17 23L16 23L16 25L15 25L15 26L14 26L14 25L13 25L13 26L12 26L12 24L15 24L15 22L14 22L14 23L11 23L11 21L10 21L10 20L9 20L9 19L8 19L8 22L9 22L9 21L10 21L10 23L11 23L11 26L12 26L12 28L11 28L11 29L12 29L12 28L14 28L14 27L15 27L15 29L17 29L17 28L16 28L16 27L17 27L17 26L16 26L16 25L18 25L18 26L19 26L19 27L18 27L18 28L19 28L19 29L21 29L21 28L22 28L22 25L23 25L23 26L25 26L25 25L26 25L26 26L27 26L27 25L28 25L28 27L27 27L27 29L28 29L28 27L29 27L29 25L28 25L28 24L25 24L25 23L26 23L26 22L27 22L27 23L28 23L28 22L29 22L29 21L27 21L27 18L28 18L28 15L29 15L29 13L27 13L27 12L26 12L26 11L28 11L28 12L29 12L29 11L28 11L28 10L29 10L29 8L28 8L28 10L26 10L26 11L25 11L25 9L27 9L27 8L24 8L24 9L22 9L22 8L21 8L21 9L19 9L19 8L18 8L18 7L19 7L19 6L20 6L20 7L21 7L21 6L20 6L20 4L18 4L18 3L17 3L17 1L18 1L18 2L19 2L19 3L21 3L21 2L19 2L19 1L20 1L20 0L17 0L17 1L16 1L16 0L12 0L12 1L11 1L11 0L10 0L10 1L9 1L9 0ZM14 1L14 2L11 2L11 4L12 4L12 3L13 3L13 5L12 5L12 6L11 6L11 8L12 8L12 6L13 6L13 8L14 8L14 9L15 9L15 7L16 7L16 6L15 6L15 5L16 5L16 4L17 4L17 3L16 3L16 1ZM14 3L14 5L13 5L13 6L14 6L14 7L15 7L15 6L14 6L14 5L15 5L15 4L16 4L16 3ZM17 5L17 7L18 7L18 5ZM8 6L8 7L9 7L9 6ZM11 9L11 10L12 10L12 9ZM16 9L16 10L14 10L14 11L11 11L11 13L9 13L9 14L11 14L11 13L12 13L12 12L13 12L13 14L14 14L14 15L16 15L16 14L17 14L17 13L16 13L16 11L17 11L17 12L18 12L18 13L19 13L19 12L18 12L18 11L17 11L17 10L18 10L18 9ZM2 10L2 11L3 11L3 10ZM19 10L19 11L20 11L20 15L21 15L21 19L20 19L20 20L21 20L21 19L22 19L22 20L24 20L24 19L22 19L22 18L23 18L23 16L24 16L24 15L21 15L21 14L22 14L22 13L23 13L23 14L27 14L27 13L25 13L25 12L22 12L22 11L24 11L24 10L22 10L22 11L21 11L21 10ZM6 12L6 13L7 13L7 12ZM14 12L14 14L16 14L16 13L15 13L15 12ZM3 15L3 16L4 16L4 15ZM6 15L6 16L7 16L7 15ZM25 15L25 17L24 17L24 18L26 18L26 17L27 17L27 15ZM3 17L3 19L4 19L4 17ZM5 17L5 18L7 18L7 17ZM0 18L0 19L1 19L1 18ZM11 19L11 20L12 20L12 19ZM25 19L25 20L26 20L26 19ZM21 21L21 24L24 24L24 21ZM22 22L22 23L23 23L23 22ZM19 23L19 26L20 26L20 27L21 27L21 25L20 25L20 23ZM9 24L9 25L8 25L8 29L10 29L10 27L9 27L9 26L10 26L10 24ZM13 26L13 27L14 27L14 26ZM15 26L15 27L16 27L16 26ZM25 27L25 29L26 29L26 27ZM23 28L23 29L24 29L24 28ZM0 0L0 7L7 7L7 0ZM1 1L1 6L6 6L6 1ZM2 2L2 5L5 5L5 2ZM22 0L22 7L29 7L29 0ZM23 1L23 6L28 6L28 1ZM24 2L24 5L27 5L27 2ZM0 22L0 29L7 29L7 22ZM1 23L1 28L6 28L6 23ZM2 24L2 27L5 27L5 24Z" fill="#000000"/></g></g></svg>
