<?xml version="1.0" encoding="UTF-8"?>
<svg xmlns="http://www.w3.org/2000/svg" version="1.1" width="200" height="200" viewBox="0 0 200 200"><rect x="0" y="0" width="200" height="200" fill="#ffffff"/><g transform="scale(6.897)"><g transform="translate(0,0)"><defs><linearGradient gradientUnits="userSpaceOnUse" x1="0" y1="0" x2="0" y2="29" id="g1"><stop offset="0%" stop-color="#000080"/><stop offset="100%" stop-color="#0000cd"/></linearGradient></defs><path fill-rule="evenodd" d="M8 0L8 1L9 1L9 2L10 2L10 3L11 3L11 1L13 1L13 0L11 0L11 1L9 1L9 0ZM15 0L15 1L16 1L16 2L15 2L15 3L16 3L16 4L14 4L14 5L15 5L15 6L14 6L14 7L13 7L13 5L12 5L12 4L13 4L13 2L12 2L12 4L11 4L11 5L10 5L10 4L9 4L9 5L10 5L10 8L9 8L9 6L8 6L8 8L9 8L9 10L10 10L10 11L8 11L8 12L6 12L6 13L7 13L7 14L5 14L5 11L7 11L7 10L8 10L8 9L7 9L7 8L6 8L6 9L7 9L7 10L5 10L5 8L3 8L3 10L2 10L2 11L0 11L0 12L1 12L1 14L0 14L0 16L2 16L2 17L4 17L4 16L5 16L5 15L7 15L7 16L6 16L6 17L5 17L5 18L6 18L6 19L7 19L7 20L6 20L6 21L7 21L7 20L9 20L9 21L8 21L8 22L9 22L9 21L10 21L10 19L12 19L12 21L14 21L14 24L13 24L13 25L12 25L12 26L13 26L13 25L15 25L15 26L14 26L14 27L12 27L12 28L10 28L10 29L13 29L13 28L15 28L15 29L17 29L17 28L15 28L15 27L16 27L16 26L17 26L17 24L18 24L18 23L17 23L17 22L19 22L19 25L18 25L18 26L19 26L19 27L18 27L18 28L19 28L19 29L22 29L22 28L23 28L23 29L26 29L26 28L27 28L27 27L28 27L28 28L29 28L29 24L27 24L27 25L25 25L25 24L26 24L26 21L28 21L28 20L27 20L27 19L25 19L25 18L28 18L28 19L29 19L29 18L28 18L28 17L24 17L24 16L25 16L25 15L26 15L26 16L27 16L27 14L28 14L28 16L29 16L29 11L28 11L28 13L27 13L27 14L26 14L26 13L24 13L24 12L23 12L23 11L22 11L22 15L21 15L21 16L20 16L20 14L17 14L17 15L16 15L16 13L14 13L14 7L15 7L15 8L16 8L16 10L15 10L15 11L16 11L16 12L18 12L18 10L20 10L20 9L18 9L18 8L20 8L20 7L21 7L21 6L20 6L20 7L19 7L19 6L18 6L18 3L20 3L20 4L19 4L19 5L20 5L20 4L21 4L21 2L20 2L20 1L21 1L21 0L20 0L20 1L19 1L19 0L18 0L18 1L17 1L17 0ZM18 1L18 2L17 2L17 3L18 3L18 2L19 2L19 1ZM11 5L11 7L12 7L12 9L10 9L10 10L12 10L12 11L13 11L13 10L12 10L12 9L13 9L13 7L12 7L12 5ZM15 6L15 7L16 7L16 6ZM17 6L17 8L18 8L18 6ZM0 8L0 10L1 10L1 9L2 9L2 8ZM22 8L22 9L23 9L23 10L25 10L25 9L23 9L23 8ZM28 8L28 9L26 9L26 11L27 11L27 10L28 10L28 9L29 9L29 8ZM17 9L17 10L18 10L18 9ZM4 10L4 11L2 11L2 14L1 14L1 15L3 15L3 16L4 16L4 15L5 15L5 14L3 14L3 12L4 12L4 11L5 11L5 10ZM10 12L10 13L9 13L9 14L13 14L13 13L11 13L11 12ZM20 12L20 13L21 13L21 12ZM7 14L7 15L8 15L8 14ZM14 14L14 15L12 15L12 16L11 16L11 15L9 15L9 16L8 16L8 17L6 17L6 18L7 18L7 19L10 19L10 18L11 18L11 17L14 17L14 16L15 16L15 17L16 17L16 19L15 19L15 18L12 18L12 19L13 19L13 20L14 20L14 19L15 19L15 21L16 21L16 22L17 22L17 21L16 21L16 19L17 19L17 20L18 20L18 19L19 19L19 22L20 22L20 20L21 20L21 19L22 19L22 20L23 20L23 19L24 19L24 20L25 20L25 19L24 19L24 17L23 17L23 16L24 16L24 15L25 15L25 14L24 14L24 15L23 15L23 16L22 16L22 17L21 17L21 18L20 18L20 19L19 19L19 17L20 17L20 16L19 16L19 15L17 15L17 17L16 17L16 15L15 15L15 14ZM0 17L0 21L3 21L3 20L5 20L5 19L4 19L4 18L3 18L3 20L2 20L2 18L1 18L1 17ZM17 17L17 19L18 19L18 17ZM21 21L21 24L24 24L24 21ZM10 22L10 23L9 23L9 24L8 24L8 26L9 26L9 27L8 27L8 29L9 29L9 27L10 27L10 26L11 26L11 25L9 25L9 24L10 24L10 23L11 23L11 22ZM12 22L12 23L13 23L13 22ZM22 22L22 23L23 23L23 22ZM15 23L15 25L16 25L16 24L17 24L17 23ZM20 25L20 28L22 28L22 27L23 27L23 28L25 28L25 27L27 27L27 26L28 26L28 25L27 25L27 26L25 26L25 25L22 25L22 26L21 26L21 25ZM24 26L24 27L25 27L25 26ZM0 0L0 7L7 7L7 0ZM1 1L1 6L6 6L6 1ZM2 2L2 5L5 5L5 2ZM22 0L22 7L29 7L29 0ZM23 1L23 6L28 6L28 1ZM24 2L24 5L27 5L27 2ZM0 22L0 29L7 29L7 22ZM1 23L1 28L6 28L6 23ZM2 24L2 27L5 27L5 24Z" fill="url(#g1)"/></g></g></svg>
