<?xml version="1.0" encoding="UTF-8"?>
<svg xmlns="http://www.w3.org/2000/svg" version="1.1" width="100" height="100" viewBox="0 0 100 100"><rect x="0" y="0" width="100" height="100" fill="#ffffff"/><g transform="scale(4)"><g transform="translate(0,0)"><path fill-rule="evenodd" d="M8 0L8 1L10 1L10 0ZM16 0L16 1L17 1L17 0ZM8 2L8 5L9 5L9 6L8 6L8 7L9 7L9 8L8 8L8 10L10 10L10 9L9 9L9 8L10 8L10 7L11 7L11 8L12 8L12 7L13 7L13 5L12 5L12 3L13 3L13 4L15 4L15 5L16 5L16 7L15 7L15 6L14 6L14 7L15 7L15 8L14 8L14 10L15 10L15 9L17 9L17 10L16 10L16 11L18 11L18 12L17 12L17 13L16 13L16 12L15 12L15 13L13 13L13 14L12 14L12 12L14 12L14 11L11 11L11 13L10 13L10 12L9 12L9 11L7 11L7 10L6 10L6 11L5 11L5 9L4 9L4 8L0 8L0 9L1 9L1 10L2 10L2 9L3 9L3 11L0 11L0 12L1 12L1 15L0 15L0 16L1 16L1 15L2 15L2 16L3 16L3 17L4 17L4 16L5 16L5 17L7 17L7 16L5 16L5 15L4 15L4 14L2 14L2 12L3 12L3 13L4 13L4 11L5 11L5 13L8 13L8 14L9 14L9 15L8 15L8 18L10 18L10 17L9 17L9 16L10 16L10 14L12 14L12 16L11 16L11 17L12 17L12 18L11 18L11 19L12 19L12 20L10 20L10 19L9 19L9 21L8 21L8 25L9 25L9 24L10 24L10 23L14 23L14 22L15 22L15 21L14 21L14 20L13 20L13 18L14 18L14 17L12 17L12 16L14 16L14 15L15 15L15 17L16 17L16 19L15 19L15 20L16 20L16 21L17 21L17 22L16 22L16 23L17 23L17 24L18 24L18 23L19 23L19 21L20 21L20 23L21 23L21 25L25 25L25 24L23 24L23 23L24 23L24 22L25 22L25 21L24 21L24 19L25 19L25 17L24 17L24 16L25 16L25 15L24 15L24 14L25 14L25 11L24 11L24 10L23 10L23 8L20 8L20 9L19 9L19 10L20 10L20 11L18 11L18 8L17 8L17 3L15 3L15 2L11 2L11 4L10 4L10 3L9 3L9 2ZM10 5L10 6L9 6L9 7L10 7L10 6L11 6L11 7L12 7L12 5ZM6 8L6 9L7 9L7 8ZM24 8L24 9L25 9L25 8ZM20 9L20 10L22 10L22 11L23 11L23 13L21 13L21 14L19 14L19 15L18 15L18 16L19 16L19 15L21 15L21 17L22 17L22 18L21 18L21 19L22 19L22 20L21 20L21 23L23 23L23 19L22 19L22 18L23 18L23 17L22 17L22 16L23 16L23 14L24 14L24 11L23 11L23 10L22 10L22 9ZM6 11L6 12L7 12L7 11ZM20 11L20 12L21 12L21 11ZM9 13L9 14L10 14L10 13ZM6 14L6 15L7 15L7 14ZM13 14L13 15L14 15L14 14ZM15 14L15 15L16 15L16 14ZM21 14L21 15L22 15L22 14ZM3 15L3 16L4 16L4 15ZM17 17L17 20L20 20L20 17ZM18 18L18 19L19 19L19 18ZM10 21L10 22L9 22L9 23L10 23L10 22L12 22L12 21ZM12 24L12 25L13 25L13 24ZM14 24L14 25L15 25L15 24ZM19 24L19 25L20 25L20 24ZM0 0L0 7L7 7L7 0ZM1 1L1 6L6 6L6 1ZM2 2L2 5L5 5L5 2ZM18 0L18 7L25 7L25 0ZM19 1L19 6L24 6L24 1ZM20 2L20 5L23 5L23 2ZM0 18L0 25L7 25L7 18ZM1 19L1 24L6 24L6 19ZM2 20L2 23L5 23L5 20Z" fill="#000000"/></g></g></svg>
