<?xml version="1.0" encoding="UTF-8"?>
<svg xmlns="http://www.w3.org/2000/svg" version="1.1" width="200" height="200" viewBox="0 0 200 200"><rect x="0" y="0" width="200" height="200" fill="#ffffff"/><g transform="scale(6.897)"><g transform="translate(0,0)"><defs><linearGradient gradientUnits="userSpaceOnUse" x1="0" y1="0" x2="0" y2="29" id="g1"><stop offset="0%" stop-color="#000080"/><stop offset="100%" stop-color="#0000cd"/></linearGradient></defs><path fill-rule="evenodd" d="M9 0L9 1L8 1L8 3L9 3L9 4L8 4L8 8L6 8L6 9L7 9L7 10L4 10L4 8L3 8L3 9L2 9L2 8L0 8L0 11L1 11L1 10L2 10L2 13L1 13L1 14L0 14L0 15L1 15L1 14L2 14L2 16L0 16L0 17L2 17L2 20L3 20L3 19L4 19L4 20L6 20L6 21L8 21L8 23L9 23L9 24L10 24L10 25L8 25L8 26L9 26L9 27L8 27L8 29L9 29L9 28L12 28L12 29L14 29L14 28L12 28L12 24L14 24L14 25L13 25L13 27L15 27L15 28L17 28L17 29L18 29L18 27L19 27L19 26L17 26L17 27L15 27L15 25L18 25L18 24L19 24L19 23L18 23L18 22L17 22L17 20L18 20L18 21L19 21L19 22L20 22L20 26L21 26L21 27L20 27L20 29L21 29L21 28L22 28L22 26L23 26L23 28L24 28L24 29L25 29L25 27L26 27L26 26L25 26L25 25L26 25L26 24L28 24L28 25L27 25L27 26L28 26L28 27L27 27L27 29L28 29L28 27L29 27L29 26L28 26L28 25L29 25L29 23L28 23L28 22L29 22L29 21L27 21L27 20L29 20L29 17L28 17L28 15L29 15L29 14L27 14L27 13L29 13L29 12L28 12L28 10L29 10L29 9L28 9L28 8L26 8L26 9L25 9L25 8L22 8L22 9L20 9L20 8L21 8L21 5L18 5L18 7L17 7L17 6L16 6L16 7L17 7L17 8L15 8L15 4L16 4L16 5L17 5L17 4L16 4L16 3L18 3L18 4L20 4L20 3L21 3L21 0L16 0L16 1L14 1L14 0L12 0L12 1L11 1L11 2L9 2L9 1L10 1L10 0ZM16 1L16 2L14 2L14 3L16 3L16 2L18 2L18 1ZM19 1L19 3L20 3L20 1ZM12 3L12 4L9 4L9 5L10 5L10 6L9 6L9 7L10 7L10 8L8 8L8 9L9 9L9 10L7 10L7 11L4 11L4 10L3 10L3 11L4 11L4 12L3 12L3 13L2 13L2 14L3 14L3 13L4 13L4 12L7 12L7 13L6 13L6 14L7 14L7 15L6 15L6 16L5 16L5 15L3 15L3 16L5 16L5 17L4 17L4 18L5 18L5 19L6 19L6 20L8 20L8 21L11 21L11 20L8 20L8 19L10 19L10 18L9 18L9 17L8 17L8 16L7 16L7 15L10 15L10 14L7 14L7 13L12 13L12 12L13 12L13 15L15 15L15 16L16 16L16 17L13 17L13 16L12 16L12 14L11 14L11 16L12 16L12 17L11 17L11 19L12 19L12 20L13 20L13 21L14 21L14 22L15 22L15 23L14 23L14 24L15 24L15 23L17 23L17 24L18 24L18 23L17 23L17 22L16 22L16 21L14 21L14 20L15 20L15 19L16 19L16 20L17 20L17 19L18 19L18 20L19 20L19 19L21 19L21 20L22 20L22 19L23 19L23 20L24 20L24 19L23 19L23 18L22 18L22 19L21 19L21 17L24 17L24 18L26 18L26 19L25 19L25 24L26 24L26 23L27 23L27 22L26 22L26 20L27 20L27 18L28 18L28 17L27 17L27 15L26 15L26 13L27 13L27 12L26 12L26 13L25 13L25 12L23 12L23 10L24 10L24 11L25 11L25 9L23 9L23 10L22 10L22 12L23 12L23 13L22 13L22 14L23 14L23 15L21 15L21 14L19 14L19 16L18 16L18 17L17 17L17 16L16 16L16 15L18 15L18 14L17 14L17 13L15 13L15 12L18 12L18 13L19 13L19 12L18 12L18 11L19 11L19 10L20 10L20 11L21 11L21 10L20 10L20 9L19 9L19 8L20 8L20 6L19 6L19 7L18 7L18 8L17 8L17 9L16 9L16 10L14 10L14 9L15 9L15 8L14 8L14 6L13 6L13 3ZM11 5L11 6L10 6L10 7L11 7L11 6L12 6L12 8L13 8L13 6L12 6L12 5ZM10 8L10 10L9 10L9 11L8 11L8 12L9 12L9 11L11 11L11 10L12 10L12 9L11 9L11 8ZM17 9L17 10L16 10L16 11L17 11L17 10L18 10L18 9ZM26 9L26 10L28 10L28 9ZM14 11L14 12L15 12L15 11ZM20 15L20 16L19 16L19 17L18 17L18 18L19 18L19 17L21 17L21 15ZM23 15L23 16L24 16L24 15ZM25 15L25 17L26 17L26 15ZM6 16L6 17L5 17L5 18L6 18L6 19L7 19L7 18L6 18L6 17L7 17L7 16ZM16 17L16 19L17 19L17 17ZM0 18L0 19L1 19L1 18ZM13 18L13 20L14 20L14 18ZM0 20L0 21L1 21L1 20ZM21 21L21 24L24 24L24 21ZM9 22L9 23L10 23L10 24L11 24L11 22ZM22 22L22 23L23 23L23 22ZM21 25L21 26L22 26L22 25ZM10 26L10 27L11 27L11 26ZM0 0L0 7L7 7L7 0ZM1 1L1 6L6 6L6 1ZM2 2L2 5L5 5L5 2ZM22 0L22 7L29 7L29 0ZM23 1L23 6L28 6L28 1ZM24 2L24 5L27 5L27 2ZM0 22L0 29L7 29L7 22ZM1 23L1 28L6 28L6 23ZM2 24L2 27L5 27L5 24Z" fill="url(#g1)"/></g></g></svg>
