<?xml version="1.0" encoding="UTF-8"?>
<svg xmlns="http://www.w3.org/2000/svg" version="1.1" width="100" height="100" viewBox="0 0 100 100"><rect x="0" y="0" width="100" height="100" fill="#ffffff"/><g transform="scale(4)"><g transform="translate(0,0)"><path fill-rule="evenodd" d="M8 0L8 2L9 2L9 3L10 3L10 2L9 2L9 1L11 1L11 2L12 2L12 0ZM13 0L13 4L12 4L12 3L11 3L11 5L9 5L9 4L8 4L8 9L7 9L7 8L5 8L5 9L7 9L7 10L4 10L4 9L3 9L3 8L0 8L0 9L2 9L2 10L0 10L0 12L1 12L1 13L4 13L4 12L5 12L5 14L3 14L3 16L0 16L0 17L4 17L4 15L5 15L5 16L6 16L6 17L7 17L7 16L8 16L8 18L10 18L10 19L8 19L8 20L10 20L10 21L9 21L9 22L8 22L8 25L9 25L9 22L10 22L10 23L11 23L11 24L10 24L10 25L11 25L11 24L12 24L12 25L13 25L13 23L14 23L14 25L15 25L15 23L14 23L14 22L13 22L13 21L12 21L12 20L13 20L13 19L14 19L14 17L13 17L13 15L14 15L14 16L15 16L15 17L16 17L16 19L15 19L15 22L17 22L17 23L16 23L16 25L17 25L17 23L18 23L18 21L20 21L20 22L19 22L19 24L21 24L21 25L22 25L22 24L21 24L21 23L22 23L22 22L23 22L23 23L25 23L25 22L24 22L24 21L22 21L22 22L21 22L21 16L22 16L22 15L23 15L23 14L24 14L24 15L25 15L25 12L24 12L24 13L23 13L23 14L21 14L21 15L19 15L19 16L18 16L18 15L17 15L17 13L18 13L18 14L20 14L20 13L19 13L19 10L20 10L20 11L21 11L21 12L22 12L22 11L23 11L23 10L24 10L24 11L25 11L25 8L23 8L23 10L22 10L22 9L21 9L21 8L17 8L17 5L16 5L16 9L15 9L15 11L16 11L16 12L15 12L15 14L14 14L14 13L12 13L12 10L13 10L13 9L12 9L12 8L13 8L13 6L14 6L14 8L15 8L15 3L16 3L16 4L17 4L17 2L14 2L14 0ZM13 4L13 5L11 5L11 7L10 7L10 6L9 6L9 7L10 7L10 9L8 9L8 10L7 10L7 11L6 11L6 12L7 12L7 13L6 13L6 14L5 14L5 15L6 15L6 16L7 16L7 15L6 15L6 14L7 14L7 13L9 13L9 14L10 14L10 13L9 13L9 12L10 12L10 11L9 11L9 12L8 12L8 10L11 10L11 8L12 8L12 6L13 6L13 5L14 5L14 4ZM16 9L16 11L17 11L17 12L18 12L18 11L17 11L17 9ZM20 9L20 10L21 10L21 9ZM2 10L2 11L3 11L3 12L4 12L4 10ZM0 14L0 15L2 15L2 14ZM12 14L12 15L8 15L8 16L10 16L10 17L11 17L11 16L12 16L12 15L13 15L13 14ZM15 15L15 16L16 16L16 15ZM23 16L23 17L24 17L24 19L25 19L25 17L24 17L24 16ZM17 17L17 20L20 20L20 17ZM18 18L18 19L19 19L19 18ZM10 19L10 20L12 20L12 19ZM10 21L10 22L11 22L11 21ZM24 24L24 25L25 25L25 24ZM0 0L0 7L7 7L7 0ZM1 1L1 6L6 6L6 1ZM2 2L2 5L5 5L5 2ZM18 0L18 7L25 7L25 0ZM19 1L19 6L24 6L24 1ZM20 2L20 5L23 5L23 2ZM0 18L0 25L7 25L7 18ZM1 19L1 24L6 24L6 19ZM2 20L2 23L5 23L5 20Z" fill="#000000"/></g></g></svg>
