<?xml version="1.0" encoding="UTF-8"?>
<svg xmlns="http://www.w3.org/2000/svg" version="1.1" width="200" height="200" viewBox="0 0 200 200"><rect x="0" y="0" width="200" height="200" fill="#ffffff"/><g transform="scale(8)"><g transform="translate(0,0)"><defs><linearGradient gradientUnits="userSpaceOnUse" x1="0" y1="0" x2="0" y2="25" id="g1"><stop offset="0%" stop-color="#000080"/><stop offset="100%" stop-color="#0000cd"/></linearGradient></defs><path fill-rule="evenodd" d="M8 0L8 4L9 4L9 5L8 5L8 7L9 7L9 9L7 9L7 8L4 8L4 9L3 9L3 11L4 11L4 12L2 12L2 11L1 11L1 10L2 10L2 8L0 8L0 9L1 9L1 10L0 10L0 12L1 12L1 13L0 13L0 14L2 14L2 15L3 15L3 16L4 16L4 17L5 17L5 15L7 15L7 16L6 16L6 17L7 17L7 16L8 16L8 15L9 15L9 17L8 17L8 18L9 18L9 19L8 19L8 21L9 21L9 22L10 22L10 21L9 21L9 19L10 19L10 20L12 20L12 21L11 21L11 24L13 24L13 23L15 23L15 25L16 25L16 23L18 23L18 24L17 24L17 25L18 25L18 24L22 24L22 25L25 25L25 24L24 24L24 22L23 22L23 20L24 20L24 21L25 21L25 20L24 20L24 19L22 19L22 18L23 18L23 16L24 16L24 15L23 15L23 14L24 14L24 13L25 13L25 12L24 12L24 11L23 11L23 10L24 10L24 9L25 9L25 8L21 8L21 9L20 9L20 8L19 8L19 10L18 10L18 11L19 11L19 10L20 10L20 11L22 11L22 12L21 12L21 13L20 13L20 14L19 14L19 15L18 15L18 14L17 14L17 15L18 15L18 16L16 16L16 10L17 10L17 6L16 6L16 7L15 7L15 6L14 6L14 7L15 7L15 8L16 8L16 9L14 9L14 10L15 10L15 11L14 11L14 12L15 12L15 13L14 13L14 15L15 15L15 16L16 16L16 21L17 21L17 22L16 22L16 23L15 23L15 17L13 17L13 18L12 18L12 17L11 17L11 16L10 16L10 15L13 15L13 14L12 14L12 13L11 13L11 14L10 14L10 13L8 13L8 14L5 14L5 12L6 12L6 13L7 13L7 12L6 12L6 11L7 11L7 10L8 10L8 12L10 12L10 11L11 11L11 12L13 12L13 11L12 11L12 10L13 10L13 6L12 6L12 8L11 8L11 5L12 5L12 4L11 4L11 5L10 5L10 4L9 4L9 3L10 3L10 2L9 2L9 1L10 1L10 0ZM11 0L11 1L12 1L12 2L11 2L11 3L13 3L13 5L17 5L17 4L16 4L16 3L17 3L17 2L16 2L16 3L15 3L15 2L14 2L14 3L13 3L13 1L12 1L12 0ZM14 0L14 1L17 1L17 0ZM9 6L9 7L10 7L10 6ZM5 9L5 10L4 10L4 11L5 11L5 10L7 10L7 9ZM10 9L10 10L9 10L9 11L10 11L10 10L11 10L11 9ZM22 9L22 10L23 10L23 9ZM17 12L17 13L19 13L19 12ZM2 13L2 14L3 14L3 13ZM21 13L21 14L20 14L20 15L19 15L19 16L21 16L21 14L23 14L23 13ZM0 16L0 17L2 17L2 16ZM9 17L9 18L11 18L11 17ZM17 17L17 20L20 20L20 17ZM21 17L21 18L22 18L22 17ZM13 18L13 21L12 21L12 23L13 23L13 22L14 22L14 18ZM18 18L18 19L19 19L19 18ZM21 20L21 21L19 21L19 22L20 22L20 23L23 23L23 22L21 22L21 21L22 21L22 20ZM8 23L8 25L9 25L9 24L10 24L10 23ZM0 0L0 7L7 7L7 0ZM1 1L1 6L6 6L6 1ZM2 2L2 5L5 5L5 2ZM18 0L18 7L25 7L25 0ZM19 1L19 6L24 6L24 1ZM20 2L20 5L23 5L23 2ZM0 18L0 25L7 25L7 18ZM1 19L1 24L6 24L6 19ZM2 20L2 23L5 23L5 20Z" fill="url(#g1)"/></g></g></svg>
