<?xml version="1.0" encoding="UTF-8"?>
<svg xmlns="http://www.w3.org/2000/svg" version="1.1" width="100" height="100" viewBox="0 0 100 100"><rect x="0" y="0" width="100" height="100" fill="#ffffff"/><g transform="scale(4)"><g transform="translate(0,0)"><path fill-rule="evenodd" d="M8 0L8 1L9 1L9 2L8 2L8 5L9 5L9 4L11 4L11 5L10 5L10 10L8 10L8 9L9 9L9 8L8 8L8 9L7 9L7 8L6 8L6 9L4 9L4 8L0 8L0 9L1 9L1 11L0 11L0 13L2 13L2 14L1 14L1 15L0 15L0 16L1 16L1 15L2 15L2 17L5 17L5 16L6 16L6 17L7 17L7 16L10 16L10 15L11 15L11 16L12 16L12 15L14 15L14 16L13 16L13 17L8 17L8 18L9 18L9 21L8 21L8 25L14 25L14 24L15 24L15 23L19 23L19 21L20 21L20 24L19 24L19 25L25 25L25 24L23 24L23 23L24 23L24 22L25 22L25 15L24 15L24 14L25 14L25 12L23 12L23 11L21 11L21 10L20 10L20 9L23 9L23 10L24 10L24 9L25 9L25 8L24 8L24 9L23 9L23 8L20 8L20 9L19 9L19 11L18 11L18 8L17 8L17 6L16 6L16 8L14 8L14 9L17 9L17 10L16 10L16 11L18 11L18 13L16 13L16 12L14 12L14 10L13 10L13 9L12 9L12 8L13 8L13 6L12 6L12 5L14 5L14 7L15 7L15 5L17 5L17 2L16 2L16 3L14 3L14 2L15 2L15 0L14 0L14 1L13 1L13 0L12 0L12 1L11 1L11 0L10 0L10 1L9 1L9 0ZM16 0L16 1L17 1L17 0ZM11 2L11 4L12 4L12 3L13 3L13 2ZM8 6L8 7L9 7L9 6ZM11 6L11 8L12 8L12 6ZM2 9L2 12L3 12L3 13L4 13L4 15L6 15L6 16L7 16L7 15L9 15L9 14L11 14L11 15L12 15L12 13L8 13L8 10L7 10L7 9L6 9L6 10L7 10L7 11L6 11L6 12L5 12L5 11L4 11L4 10L3 10L3 9ZM11 9L11 10L12 10L12 9ZM11 11L11 12L12 12L12 11ZM20 11L20 12L21 12L21 16L24 16L24 15L22 15L22 14L24 14L24 13L22 13L22 12L21 12L21 11ZM4 12L4 13L5 13L5 12ZM6 12L6 13L7 13L7 14L6 14L6 15L7 15L7 14L8 14L8 13L7 13L7 12ZM14 14L14 15L16 15L16 14ZM19 14L19 15L20 15L20 14ZM14 16L14 17L13 17L13 18L10 18L10 21L9 21L9 22L10 22L10 21L12 21L12 23L15 23L15 22L16 22L16 20L15 20L15 21L14 21L14 18L15 18L15 19L16 19L16 16ZM17 17L17 20L20 20L20 17ZM21 17L21 20L22 20L22 21L24 21L24 19L22 19L22 17ZM23 17L23 18L24 18L24 17ZM18 18L18 19L19 19L19 18ZM21 22L21 24L22 24L22 22ZM9 23L9 24L11 24L11 23ZM17 24L17 25L18 25L18 24ZM0 0L0 7L7 7L7 0ZM1 1L1 6L6 6L6 1ZM2 2L2 5L5 5L5 2ZM18 0L18 7L25 7L25 0ZM19 1L19 6L24 6L24 1ZM20 2L20 5L23 5L23 2ZM0 18L0 25L7 25L7 18ZM1 19L1 24L6 24L6 19ZM2 20L2 23L5 23L5 20Z" fill="#000000"/></g></g></svg>
