<?xml version="1.0" encoding="UTF-8"?>
<svg xmlns="http://www.w3.org/2000/svg" version="1.1" width="200" height="200" viewBox="0 0 200 200"><rect x="0" y="0" width="200" height="200" fill="#ffffff"/><g transform="scale(6.897)"><g transform="translate(0,0)"><defs><linearGradient gradientUnits="userSpaceOnUse" x1="0" y1="0" x2="0" y2="29" id="g1"><stop offset="0%" stop-color="#000080"/><stop offset="100%" stop-color="#0000cd"/></linearGradient></defs><path fill-rule="evenodd" d="M10 0L10 2L11 2L11 0ZM12 0L12 1L13 1L13 2L12 2L12 4L13 4L13 3L14 3L14 4L15 4L15 5L17 5L17 4L18 4L18 3L19 3L19 2L18 2L18 1L20 1L20 3L21 3L21 1L20 1L20 0L17 0L17 1L16 1L16 0ZM8 1L8 2L9 2L9 1ZM14 2L14 3L15 3L15 2ZM16 2L16 4L17 4L17 3L18 3L18 2ZM8 3L8 4L9 4L9 5L8 5L8 7L9 7L9 8L6 8L6 9L5 9L5 8L0 8L0 10L2 10L2 11L1 11L1 12L0 12L0 14L3 14L3 15L4 15L4 16L2 16L2 15L0 15L0 16L2 16L2 17L0 17L0 21L1 21L1 18L3 18L3 19L5 19L5 21L7 21L7 20L8 20L8 23L9 23L9 24L8 24L8 29L9 29L9 27L10 27L10 29L11 29L11 25L12 25L12 26L13 26L13 27L12 27L12 29L13 29L13 28L14 28L14 29L16 29L16 27L17 27L17 25L18 25L18 24L17 24L17 23L18 23L18 22L19 22L19 24L20 24L20 26L21 26L21 25L27 25L27 28L26 28L26 26L24 26L24 27L25 27L25 28L24 28L24 29L27 29L27 28L28 28L28 26L29 26L29 25L28 25L28 24L29 24L29 23L27 23L27 22L29 22L29 20L28 20L28 19L27 19L27 16L28 16L28 15L27 15L27 12L28 12L28 11L27 11L27 12L25 12L25 13L20 13L20 12L19 12L19 14L17 14L17 13L18 13L18 12L16 12L16 11L17 11L17 10L16 10L16 9L12 9L12 7L13 7L13 5L11 5L11 6L10 6L10 4L11 4L11 3ZM19 4L19 5L21 5L21 4ZM9 6L9 7L10 7L10 6ZM11 6L11 7L12 7L12 6ZM14 6L14 8L15 8L15 6ZM16 6L16 8L17 8L17 9L18 9L18 10L20 10L20 11L21 11L21 12L22 12L22 11L21 11L21 10L23 10L23 12L24 12L24 10L25 10L25 9L26 9L26 8L25 8L25 9L24 9L24 8L23 8L23 9L22 9L22 8L21 8L21 6L20 6L20 8L19 8L19 6L18 6L18 8L17 8L17 6ZM10 8L10 9L8 9L8 10L7 10L7 9L6 9L6 10L4 10L4 9L3 9L3 10L4 10L4 11L5 11L5 12L7 12L7 13L4 13L4 12L3 12L3 11L2 11L2 12L1 12L1 13L4 13L4 15L5 15L5 16L7 16L7 15L8 15L8 16L10 16L10 17L11 17L11 18L9 18L9 17L8 17L8 18L7 18L7 17L3 17L3 18L7 18L7 19L6 19L6 20L7 20L7 19L8 19L8 18L9 18L9 19L11 19L11 20L9 20L9 22L10 22L10 24L9 24L9 25L10 25L10 24L11 24L11 22L13 22L13 23L12 23L12 25L15 25L15 26L16 26L16 25L17 25L17 24L16 24L16 23L17 23L17 22L16 22L16 21L17 21L17 20L18 20L18 19L20 19L20 18L19 18L19 17L21 17L21 16L22 16L22 17L26 17L26 16L27 16L27 15L26 15L26 13L25 13L25 14L24 14L24 15L23 15L23 14L19 14L19 15L17 15L17 16L16 16L16 15L15 15L15 14L16 14L16 12L15 12L15 11L14 11L14 12L13 12L13 13L12 13L12 11L13 11L13 10L12 10L12 9L11 9L11 8ZM18 8L18 9L19 9L19 8ZM20 8L20 9L21 9L21 8ZM27 8L27 9L28 9L28 10L29 10L29 9L28 9L28 8ZM10 9L10 11L11 11L11 9ZM6 10L6 11L7 11L7 10ZM8 11L8 13L11 13L11 12L9 12L9 11ZM14 12L14 13L15 13L15 12ZM28 13L28 14L29 14L29 13ZM6 14L6 15L7 15L7 14ZM8 14L8 15L9 15L9 14ZM10 14L10 15L11 15L11 17L12 17L12 18L13 18L13 19L12 19L12 21L13 21L13 20L14 20L14 21L15 21L15 20L17 20L17 17L18 17L18 16L17 16L17 17L16 17L16 18L15 18L15 17L12 17L12 15L13 15L13 14ZM14 15L14 16L15 16L15 15ZM19 15L19 16L21 16L21 15ZM24 15L24 16L25 16L25 15ZM28 17L28 18L29 18L29 17ZM21 18L21 20L23 20L23 19L22 19L22 18ZM14 19L14 20L15 20L15 19ZM24 19L24 20L25 20L25 21L26 21L26 20L27 20L27 19ZM2 20L2 21L3 21L3 20ZM10 21L10 22L11 22L11 21ZM19 21L19 22L20 22L20 21ZM21 21L21 24L24 24L24 21ZM15 22L15 23L14 23L14 24L15 24L15 23L16 23L16 22ZM22 22L22 23L23 23L23 22ZM26 23L26 24L27 24L27 23ZM22 26L22 27L18 27L18 28L17 28L17 29L18 29L18 28L19 28L19 29L20 29L20 28L21 28L21 29L22 29L22 27L23 27L23 26ZM14 27L14 28L15 28L15 27ZM0 0L0 7L7 7L7 0ZM1 1L1 6L6 6L6 1ZM2 2L2 5L5 5L5 2ZM22 0L22 7L29 7L29 0ZM23 1L23 6L28 6L28 1ZM24 2L24 5L27 5L27 2ZM0 22L0 29L7 29L7 22ZM1 23L1 28L6 28L6 23ZM2 24L2 27L5 27L5 24Z" fill="url(#g1)"/></g></g></svg>
