<?xml version="1.0" encoding="UTF-8"?>
<svg xmlns="http://www.w3.org/2000/svg" version="1.1" width="200" height="200" viewBox="0 0 200 200"><rect x="0" y="0" width="200" height="200" fill="#ffffff"/><g transform="scale(6.897)"><g transform="translate(0,0)"><path fill-rule="evenodd" d="M9 0L9 1L8 1L8 3L9 3L9 4L8 4L8 8L6 8L6 9L4 9L4 8L3 8L3 9L4 9L4 10L1 10L1 9L2 9L2 8L0 8L0 11L1 11L1 13L0 13L0 14L1 14L1 16L0 16L0 17L1 17L1 18L0 18L0 19L1 19L1 18L2 18L2 20L4 20L4 21L5 21L5 20L6 20L6 21L7 21L7 20L8 20L8 23L10 23L10 22L9 22L9 21L11 21L11 24L9 24L9 25L8 25L8 26L9 26L9 27L8 27L8 29L11 29L11 28L12 28L12 29L14 29L14 28L12 28L12 24L14 24L14 25L13 25L13 27L15 27L15 25L17 25L17 26L16 26L16 28L17 28L17 29L18 29L18 28L19 28L19 27L18 27L18 26L19 26L19 25L18 25L18 24L19 24L19 23L18 23L18 22L17 22L17 20L18 20L18 21L19 21L19 22L20 22L20 26L21 26L21 27L20 27L20 29L21 29L21 28L22 28L22 26L23 26L23 28L24 28L24 29L25 29L25 27L26 27L26 26L25 26L25 25L26 25L26 24L28 24L28 25L27 25L27 26L28 26L28 27L27 27L27 29L28 29L28 27L29 27L29 26L28 26L28 25L29 25L29 23L28 23L28 22L29 22L29 21L27 21L27 20L29 20L29 17L28 17L28 15L29 15L29 14L27 14L27 13L29 13L29 12L28 12L28 10L29 10L29 9L28 9L28 8L26 8L26 9L25 9L25 8L22 8L22 9L20 9L20 8L21 8L21 5L18 5L18 7L17 7L17 6L16 6L16 7L17 7L17 8L15 8L15 4L16 4L16 5L17 5L17 4L16 4L16 3L18 3L18 4L20 4L20 3L21 3L21 0L16 0L16 1L14 1L14 0L12 0L12 1L11 1L11 2L9 2L9 1L10 1L10 0ZM16 1L16 2L14 2L14 3L16 3L16 2L18 2L18 1ZM19 1L19 3L20 3L20 1ZM12 3L12 4L9 4L9 5L10 5L10 6L9 6L9 7L10 7L10 8L8 8L8 9L6 9L6 10L5 10L5 11L4 11L4 12L3 12L3 11L2 11L2 13L1 13L1 14L4 14L4 16L3 16L3 15L2 15L2 16L1 16L1 17L2 17L2 16L3 16L3 18L4 18L4 19L5 19L5 18L7 18L7 17L6 17L6 16L7 16L7 15L8 15L8 18L9 18L9 17L10 17L10 16L12 16L12 17L11 17L11 19L10 19L10 20L11 20L11 19L12 19L12 20L13 20L13 21L14 21L14 22L15 22L15 23L14 23L14 24L18 24L18 23L17 23L17 22L16 22L16 20L17 20L17 19L18 19L18 20L19 20L19 19L21 19L21 20L22 20L22 19L23 19L23 20L24 20L24 19L23 19L23 18L22 18L22 19L21 19L21 17L24 17L24 18L26 18L26 19L25 19L25 24L26 24L26 23L27 23L27 22L26 22L26 20L27 20L27 18L28 18L28 17L27 17L27 15L26 15L26 13L27 13L27 12L26 12L26 13L25 13L25 12L23 12L23 10L24 10L24 11L25 11L25 9L23 9L23 10L22 10L22 12L23 12L23 13L22 13L22 14L23 14L23 15L21 15L21 14L19 14L19 16L18 16L18 17L16 17L16 16L15 16L15 17L13 17L13 16L12 16L12 14L10 14L10 15L9 15L9 13L12 13L12 12L13 12L13 15L18 15L18 14L16 14L16 13L17 13L17 12L18 12L18 13L19 13L19 12L18 12L18 11L19 11L19 10L20 10L20 11L21 11L21 10L20 10L20 9L19 9L19 8L20 8L20 6L19 6L19 7L18 7L18 8L17 8L17 9L16 9L16 10L14 10L14 9L15 9L15 8L14 8L14 6L13 6L13 3ZM11 5L11 6L10 6L10 7L11 7L11 6L12 6L12 8L13 8L13 6L12 6L12 5ZM10 8L10 10L9 10L9 11L8 11L8 10L6 10L6 11L8 11L8 12L9 12L9 11L11 11L11 10L12 10L12 9L11 9L11 8ZM17 9L17 10L16 10L16 11L14 11L14 12L17 12L17 10L18 10L18 9ZM26 9L26 10L28 10L28 9ZM4 12L4 14L5 14L5 15L7 15L7 14L5 14L5 12ZM6 12L6 13L7 13L7 12ZM20 15L20 16L19 16L19 17L18 17L18 18L19 18L19 17L21 17L21 15ZM23 15L23 16L24 16L24 15ZM25 15L25 17L26 17L26 15ZM13 18L13 20L14 20L14 21L15 21L15 20L14 20L14 18ZM16 18L16 19L17 19L17 18ZM6 19L6 20L7 20L7 19ZM8 19L8 20L9 20L9 19ZM0 20L0 21L1 21L1 20ZM21 21L21 24L24 24L24 21ZM22 22L22 23L23 23L23 22ZM10 25L10 28L11 28L11 25ZM21 25L21 26L22 26L22 25ZM0 0L0 7L7 7L7 0ZM1 1L1 6L6 6L6 1ZM2 2L2 5L5 5L5 2ZM22 0L22 7L29 7L29 0ZM23 1L23 6L28 6L28 1ZM24 2L24 5L27 5L27 2ZM0 22L0 29L7 29L7 22ZM1 23L1 28L6 28L6 23ZM2 24L2 27L5 27L5 24Z" fill="#000000"/></g></g></svg>
