<?xml version="1.0" encoding="UTF-8"?>
<svg xmlns="http://www.w3.org/2000/svg" version="1.1" width="200" height="200" viewBox="0 0 200 200"><rect x="0" y="0" width="200" height="200" fill="#ffffff"/><g transform="scale(6.897)"><g transform="translate(0,0)"><defs><linearGradient gradientUnits="userSpaceOnUse" x1="0" y1="0" x2="0" y2="29" id="g1"><stop offset="0%" stop-color="#000080"/><stop offset="100%" stop-color="#0000cd"/></linearGradient></defs><path fill-rule="evenodd" d="M8 0L8 1L9 1L9 2L8 2L8 5L9 5L9 4L11 4L11 5L10 5L10 10L9 10L9 8L8 8L8 10L9 10L9 16L10 16L10 17L11 17L11 16L12 16L12 17L13 17L13 16L12 16L12 14L13 14L13 15L14 15L14 18L13 18L13 21L15 21L15 20L16 20L16 18L17 18L17 15L18 15L18 14L19 14L19 16L18 16L18 18L19 18L19 16L20 16L20 19L19 19L19 20L20 20L20 22L19 22L19 21L18 21L18 19L17 19L17 21L16 21L16 23L17 23L17 22L18 22L18 24L17 24L17 25L16 25L16 24L15 24L15 22L14 22L14 23L11 23L11 20L12 20L12 19L11 19L11 18L8 18L8 16L6 16L6 17L5 17L5 16L4 16L4 15L2 15L2 14L5 14L5 13L2 13L2 12L3 12L3 10L4 10L4 12L5 12L5 10L6 10L6 11L7 11L7 10L6 10L6 9L7 9L7 8L6 8L6 9L4 9L4 8L0 8L0 11L2 11L2 12L0 12L0 15L1 15L1 16L0 16L0 17L1 17L1 18L0 18L0 19L1 19L1 18L2 18L2 19L3 19L3 18L4 18L4 20L1 20L1 21L4 21L4 20L5 20L5 21L8 21L8 22L10 22L10 23L11 23L11 25L10 25L10 24L9 24L9 25L8 25L8 29L9 29L9 28L10 28L10 29L12 29L12 28L14 28L14 27L15 27L15 26L18 26L18 27L19 27L19 28L18 28L18 29L21 29L21 28L22 28L22 25L23 25L23 26L25 26L25 25L26 25L26 26L27 26L27 25L28 25L28 27L27 27L27 29L28 29L28 27L29 27L29 25L28 25L28 24L25 24L25 23L26 23L26 22L27 22L27 23L28 23L28 22L29 22L29 21L27 21L27 18L28 18L28 15L29 15L29 13L27 13L27 12L26 12L26 11L28 11L28 12L29 12L29 11L28 11L28 10L29 10L29 8L28 8L28 10L26 10L26 11L25 11L25 9L27 9L27 8L24 8L24 9L22 9L22 8L21 8L21 9L19 9L19 8L18 8L18 7L19 7L19 6L20 6L20 7L21 7L21 6L20 6L20 4L18 4L18 3L17 3L17 1L18 1L18 2L19 2L19 3L21 3L21 2L19 2L19 1L20 1L20 0L17 0L17 1L16 1L16 0L12 0L12 1L11 1L11 0L10 0L10 1L9 1L9 0ZM14 1L14 2L11 2L11 4L12 4L12 3L13 3L13 5L12 5L12 6L11 6L11 8L12 8L12 6L13 6L13 8L14 8L14 9L15 9L15 7L16 7L16 6L15 6L15 5L16 5L16 4L17 4L17 3L16 3L16 1ZM14 3L14 5L13 5L13 6L14 6L14 7L15 7L15 6L14 6L14 5L15 5L15 4L16 4L16 3ZM17 5L17 7L18 7L18 5ZM8 6L8 7L9 7L9 6ZM1 9L1 10L2 10L2 9ZM11 9L11 10L12 10L12 9ZM16 9L16 10L14 10L14 11L11 11L11 13L10 13L10 15L11 15L11 13L12 13L12 12L13 12L13 14L14 14L14 15L15 15L15 17L16 17L16 14L17 14L17 13L16 13L16 14L14 14L14 12L16 12L16 11L17 11L17 12L18 12L18 13L19 13L19 12L18 12L18 11L17 11L17 10L18 10L18 9ZM19 10L19 11L20 11L20 15L21 15L21 19L20 19L20 20L21 20L21 19L22 19L22 20L24 20L24 19L22 19L22 18L23 18L23 16L24 16L24 15L21 15L21 14L22 14L22 13L23 13L23 14L27 14L27 13L25 13L25 12L22 12L22 11L24 11L24 10L22 10L22 11L21 11L21 10ZM6 12L6 13L8 13L8 12ZM6 14L6 15L8 15L8 14ZM25 15L25 17L24 17L24 18L26 18L26 17L27 17L27 15ZM1 16L1 17L2 17L2 18L3 18L3 17L2 17L2 16ZM4 17L4 18L5 18L5 19L6 19L6 20L7 20L7 19L8 19L8 18L7 18L7 17L6 17L6 18L5 18L5 17ZM6 18L6 19L7 19L7 18ZM10 19L10 20L11 20L11 19ZM25 19L25 20L26 20L26 19ZM8 20L8 21L9 21L9 20ZM21 21L21 24L24 24L24 21ZM22 22L22 23L23 23L23 22ZM19 23L19 24L18 24L18 25L19 25L19 26L20 26L20 27L21 27L21 25L20 25L20 23ZM12 24L12 26L10 26L10 25L9 25L9 26L10 26L10 27L11 27L11 28L12 28L12 26L13 26L13 27L14 27L14 26L15 26L15 24ZM13 25L13 26L14 26L14 25ZM25 27L25 29L26 29L26 27ZM16 28L16 29L17 29L17 28ZM23 28L23 29L24 29L24 28ZM0 0L0 7L7 7L7 0ZM1 1L1 6L6 6L6 1ZM2 2L2 5L5 5L5 2ZM22 0L22 7L29 7L29 0ZM23 1L23 6L28 6L28 1ZM24 2L24 5L27 5L27 2ZM0 22L0 29L7 29L7 22ZM1 23L1 28L6 28L6 23ZM2 24L2 27L5 27L5 24Z" fill="url(#g1)"/></g></g></svg>
