<?xml version="1.0" encoding="UTF-8"?>
<svg xmlns="http://www.w3.org/2000/svg" version="1.1" width="200" height="200" viewBox="0 0 200 200"><rect x="0" y="0" width="200" height="200" fill="#ffffff"/><g transform="scale(6.897)"><g transform="translate(0,0)"><defs><linearGradient gradientUnits="userSpaceOnUse" x1="0" y1="0" x2="0" y2="29" id="g1"><stop offset="0%" stop-color="#000000"/><stop offset="100%" stop-color="#000080"/></linearGradient></defs><path fill-rule="evenodd" d="M11 0L11 1L9 1L9 2L11 2L11 1L13 1L13 2L12 2L12 4L13 4L13 3L14 3L14 2L15 2L15 3L16 3L16 4L15 4L15 6L14 6L14 8L17 8L17 9L16 9L16 10L14 10L14 9L12 9L12 7L13 7L13 5L11 5L11 6L10 6L10 8L9 8L9 10L10 10L10 11L9 11L9 13L8 13L8 14L6 14L6 15L7 15L7 16L5 16L5 17L7 17L7 18L5 18L5 19L7 19L7 20L6 20L6 21L7 21L7 20L8 20L8 24L9 24L9 21L10 21L10 23L11 23L11 24L10 24L10 25L9 25L9 27L8 27L8 29L9 29L9 27L11 27L11 24L12 24L12 23L13 23L13 22L11 22L11 21L10 21L10 18L11 18L11 19L12 19L12 21L13 21L13 20L14 20L14 22L15 22L15 23L14 23L14 24L13 24L13 25L12 25L12 26L13 26L13 27L12 27L12 29L13 29L13 28L14 28L14 29L16 29L16 28L17 28L17 29L18 29L18 28L19 28L19 29L20 29L20 27L18 27L18 26L17 26L17 23L18 23L18 22L19 22L19 25L20 25L20 26L22 26L22 28L21 28L21 29L22 29L22 28L23 28L23 26L22 26L22 25L25 25L25 24L26 24L26 23L27 23L27 22L26 22L26 21L29 21L29 20L26 20L26 21L25 21L25 20L24 20L24 19L25 19L25 18L28 18L28 19L29 19L29 17L27 17L27 14L29 14L29 12L28 12L28 13L26 13L26 17L22 17L22 16L23 16L23 15L24 15L24 16L25 16L25 15L24 15L24 14L25 14L25 13L24 13L24 10L25 10L25 9L26 9L26 10L28 10L28 9L26 9L26 8L24 8L24 9L23 9L23 12L22 12L22 14L23 14L23 15L21 15L21 17L19 17L19 19L18 19L18 18L17 18L17 17L18 17L18 16L17 16L17 15L19 15L19 16L20 16L20 15L19 15L19 14L21 14L21 12L20 12L20 13L19 13L19 14L17 14L17 12L16 12L16 11L17 11L17 9L18 9L18 10L20 10L20 11L21 11L21 10L20 10L20 8L21 8L21 6L20 6L20 8L19 8L19 6L18 6L18 8L17 8L17 6L16 6L16 5L17 5L17 4L18 4L18 3L19 3L19 2L18 2L18 1L19 1L19 0L18 0L18 1L17 1L17 0L15 0L15 1L13 1L13 0ZM20 0L20 4L19 4L19 5L21 5L21 0ZM15 1L15 2L16 2L16 3L18 3L18 2L16 2L16 1ZM8 3L8 5L10 5L10 4L9 4L9 3ZM8 6L8 7L9 7L9 6ZM11 6L11 7L12 7L12 6ZM15 6L15 7L16 7L16 6ZM0 8L0 10L1 10L1 9L2 9L2 8ZM5 8L5 9L4 9L4 12L2 12L2 11L3 11L3 10L2 10L2 11L0 11L0 12L1 12L1 13L0 13L0 16L1 16L1 17L0 17L0 21L1 21L1 19L2 19L2 20L3 20L3 21L5 21L5 20L4 20L4 18L1 18L1 17L4 17L4 16L3 16L3 15L4 15L4 14L5 14L5 13L7 13L7 12L8 12L8 10L6 10L6 11L7 11L7 12L5 12L5 9L8 9L8 8ZM10 8L10 10L11 10L11 11L10 11L10 14L9 14L9 16L8 16L8 17L9 17L9 18L10 18L10 17L9 17L9 16L11 16L11 15L10 15L10 14L13 14L13 15L12 15L12 17L11 17L11 18L12 18L12 19L14 19L14 20L16 20L16 23L15 23L15 25L16 25L16 23L17 23L17 20L18 20L18 19L17 19L17 18L16 18L16 19L15 19L15 18L12 18L12 17L15 17L15 13L16 13L16 12L15 12L15 11L14 11L14 13L11 13L11 12L12 12L12 11L13 11L13 10L12 10L12 9L11 9L11 8ZM18 8L18 9L19 9L19 8ZM2 13L2 14L3 14L3 13ZM28 15L28 16L29 16L29 15ZM16 16L16 17L17 17L17 16ZM21 17L21 18L20 18L20 19L22 19L22 20L23 20L23 19L24 19L24 18L22 18L22 17ZM7 18L7 19L8 19L8 18ZM19 21L19 22L20 22L20 21ZM21 21L21 24L24 24L24 21ZM22 22L22 23L23 23L23 22ZM28 23L28 24L27 24L27 25L28 25L28 26L27 26L27 27L26 27L26 26L24 26L24 27L25 27L25 28L24 28L24 29L27 29L27 27L28 27L28 28L29 28L29 27L28 27L28 26L29 26L29 23ZM16 26L16 27L17 27L17 28L18 28L18 27L17 27L17 26ZM0 0L0 7L7 7L7 0ZM1 1L1 6L6 6L6 1ZM2 2L2 5L5 5L5 2ZM22 0L22 7L29 7L29 0ZM23 1L23 6L28 6L28 1ZM24 2L24 5L27 5L27 2ZM0 22L0 29L7 29L7 22ZM1 23L1 28L6 28L6 23ZM2 24L2 27L5 27L5 24Z" fill="url(#g1)"/></g></g></svg>
